<svg id="Capa_1" enable-background="new 0 0 512 512" height="512" viewBox="0 0 512 512" width="512" xmlns="http://www.w3.org/2000/svg"><g><path d="m144.784 77.587h359.701l-46.617 194.252-265.27.754z" fill="#eaeaea"/><path d="m188.162 254.501 4.436 18.092 265.27-.754 4.314-17.978z" fill="#cbcbcb"/><path d="m476.941 376.095h-309.425c-29.643 0-53.76-24.117-53.76-53.76 0-25.306 17.576-46.585 41.162-52.27l-52.888-215.704c-.283-1.153-1.31-1.959-2.497-1.959h-74.022c-9.939 0-17.996-8.057-17.996-17.997s8.057-17.995 17.996-17.995h74.022c17.811 0 33.213 12.082 37.455 29.38l55.61 226.803c1.901 7.756.165 15.807-4.763 22.089-4.928 6.283-12.334 9.885-20.319 9.885-9.797 0-17.767 7.97-17.767 17.767s7.97 17.768 17.767 17.768h309.424c9.939 0 17.996 8.057 17.996 17.996.001 9.94-8.056 17.997-17.995 17.997z" fill="#dd636e"/><g><g fill="#da4a54"><path d="m476.941 358.06h-309.425c-26.58 0-48.702-19.395-52.994-44.772-.501 2.942-.766 5.964-.766 9.047 0 29.643 24.117 53.76 53.76 53.76h309.424c9.939 0 17.996-8.057 17.996-17.996 0-3.29-.897-6.364-2.439-9.018-3.115 5.363-8.907 8.979-15.556 8.979z"/><path d="m99.533 39.377c0-2.767-2.243-5.01-5.01-5.01h-69.012c-6.649 0-12.442-3.616-15.557-8.979-1.763 3.035-2.683 6.618-2.383 10.447.741 9.448 8.966 16.567 18.443 16.567h73.52v-13.025z"/></g></g><circle cx="408.535" cy="435.843" fill="#8c808a" r="59.748"/><path d="m408.535 477.555c-29.932 0-54.722-22.012-59.07-50.73-.445 2.941-.678 5.952-.678 9.018 0 32.998 26.75 59.748 59.748 59.748s59.748-26.75 59.748-59.748c0-3.065-.233-6.076-.678-9.018-4.348 28.719-29.137 50.73-59.07 50.73z" fill="#7b7179"/><circle cx="220.419" cy="435.843" fill="#8c808a" r="59.748"/><path d="m220.419 477.555c-29.932 0-54.722-22.012-59.07-50.73-.445 2.941-.678 5.952-.678 9.018 0 32.998 26.75 59.748 59.748 59.748s59.748-26.75 59.748-59.748c0-3.065-.233-6.076-.678-9.018-4.348 28.719-29.138 50.73-59.07 50.73z" fill="#7b7179"/><path d="" fill="none"/><circle cx="220.419" cy="435.843" fill="#f9ef63" r="28.933"/><path d="m220.419 446.74c-12.829 0-23.702-8.353-27.492-19.915-.931 2.839-1.441 5.868-1.441 9.018 0 15.979 12.954 28.933 28.933 28.933s28.933-12.954 28.933-28.933c0-3.15-.51-6.179-1.441-9.018-3.79 11.562-14.663 19.915-27.492 19.915z" fill="#f1d333"/><circle cx="408.535" cy="435.843" fill="#f9ef63" r="28.933"/><path d="m408.535 446.74c-12.829 0-23.702-8.353-27.492-19.915-.931 2.839-1.441 5.868-1.441 9.018 0 15.979 12.954 28.933 28.933 28.933s28.933-12.954 28.933-28.933c0-3.15-.51-6.179-1.441-9.018-3.79 11.562-14.662 19.915-27.492 19.915z" fill="#f1d333"/><g><path d="m476.94 332.587h-124.402c-4.151 0-7.515 3.364-7.515 7.515 0 4.15 3.364 7.515 7.515 7.515h124.402c5.78 0 10.482 4.702 10.482 10.482s-4.703 10.482-10.482 10.482h-309.423c-25.5 0-46.246-20.746-46.246-46.246 0-21.449 14.561-39.939 35.408-44.964 1.943-.468 3.618-1.691 4.658-3.397 1.039-1.707 1.356-3.757.88-5.698l-31.832-129.826c-.988-4.031-5.057-6.497-9.088-5.509s-6.497 5.057-5.509 9.088l30.145 122.943c-23.704 8.873-39.691 31.494-39.691 57.362 0 33.787 27.488 61.275 61.275 61.275h10.586c-15.206 12.342-24.946 31.168-24.946 52.233 0 7.091 1.1 14.078 3.269 20.767 1.28 3.947 5.52 6.108 9.466 4.83 3.948-1.28 6.111-5.518 4.83-9.466-1.682-5.189-2.536-10.616-2.536-16.131 0-28.801 23.432-52.233 52.233-52.233s52.233 23.431 52.233 52.233c0 28.801-23.432 52.233-52.233 52.233-13.237 0-25.863-4.96-35.551-13.966-3.04-2.826-7.794-2.652-10.62.387-2.826 3.04-2.652 7.795.388 10.62 12.478 11.599 28.738 17.987 45.784 17.987 37.089 0 67.263-30.174 67.263-67.263 0-21.065-9.741-39.891-24.946-52.233h103.484c-15.206 12.342-24.946 31.168-24.946 52.233 0 37.089 30.174 67.263 67.262 67.263s67.262-30.174 67.262-67.263c0-21.065-9.741-39.891-24.946-52.233h26.089c14.068 0 25.512-11.444 25.512-25.511-.002-14.065-11.446-25.509-25.514-25.509zm-16.172 103.255c0 28.801-23.431 52.233-52.233 52.233-28.801 0-52.233-23.432-52.233-52.233s23.431-52.233 52.233-52.233c28.802.001 52.233 23.432 52.233 52.233z"/><path d="m510.387 72.934c-1.425-1.807-3.6-2.862-5.901-2.862h-353.807l-6.393-26.072c-5.068-20.67-23.471-35.106-44.753-35.106h-74.022c-14.067.001-25.511 11.445-25.511 25.512s11.444 25.511 25.511 25.511h70.144l13.45 54.857c.988 4.03 5.054 6.496 9.088 5.509 4.031-.988 6.497-5.057 5.509-9.088l-14.374-58.624c-1.11-4.524-5.138-7.684-9.796-7.684h-74.021c-5.78 0-10.482-4.702-10.482-10.482s4.702-10.482 10.482-10.482h74.022c14.34 0 26.741 9.727 30.156 23.656l55.61 226.802c1.348 5.499.117 11.208-3.377 15.662s-8.744 7.009-14.406 7.009c-13.94 0-25.282 11.341-25.282 25.281 0 13.941 11.342 25.282 25.282 25.282h154.963c4.151 0 7.515-3.365 7.515-7.515s-3.364-7.515-7.515-7.515h-154.962c-5.653 0-10.252-4.599-10.252-10.253 0-5.653 4.599-10.252 10.252-10.252 10.309 0 19.869-4.652 26.231-12.762 4.403-5.612 6.828-12.319 7.094-19.236l257.048-.73c3.467-.01 6.477-2.39 7.286-5.761l46.617-194.252c.537-2.236.018-4.597-1.406-6.405zm-42.905 126.64h-45.677l9.726-49.721h47.883zm-48.324-64.75h-47.139l4.318-49.722h52.547zm-58.409 129.777 4.342-49.997h38.461l-9.762 49.903zm-104.534.296-9.838-50.294h38.461l4.359 50.2zm-57.727.164-12.372-50.458h44.947l9.847 50.338zm94.507-130.237-4.318-49.722h72.573l-4.318 49.722zm62.633 15.029-4.318 49.721h-52.692l-4.318-49.721zm-72.095 49.721h-40.096l-9.726-49.721h45.504zm-5.623-64.75h-47.139l-9.726-49.722h52.547zm-49.787 64.75h-45.692l-12.191-49.721h48.157zm71.8 15.029h50.082l-4.346 50.04-41.38.118zm66.473-15.029 4.318-49.721h45.504l-9.726 49.721zm-160.665-114.472 9.726 49.722h-48.902l-12.191-49.722zm246.208 179.24-42.827.122 9.753-49.86h45.01zm31.083-129.518h-48.55l9.726-49.722h50.756z"/><path d="m220.419 472.29c20.097 0 36.448-16.35 36.448-36.448 0-20.097-16.35-36.447-36.448-36.447-20.097 0-36.448 16.35-36.448 36.447.001 20.098 16.351 36.448 36.448 36.448zm0-57.865c11.81 0 21.418 9.608 21.418 21.418s-9.608 21.418-21.418 21.418-21.418-9.608-21.418-21.418 9.608-21.418 21.418-21.418z"/><path d="m408.535 472.29c20.097 0 36.447-16.35 36.447-36.448 0-20.097-16.35-36.447-36.447-36.447s-36.447 16.35-36.447 36.447c0 20.098 16.35 36.448 36.447 36.448zm0-57.865c11.81 0 21.418 9.608 21.418 21.418s-9.608 21.418-21.418 21.418-21.418-9.608-21.418-21.418 9.608-21.418 21.418-21.418z"/></g></g></svg>